HIERARCHY
ROOT Hips
{
	OFFSET 0.00000 0.00000 0.00000
	CHANNELS 6 Xposition Yposition Zposition Zrotation Yrotation Xrotation 
	JOINT LHipJoint
	{
		OFFSET 0 0 0
		CHANNELS 3 Zrotation Yrotation Xrotation
		JOINT LeftHip
		{
			OFFSET 1.62964 -1.40469 0.78906
			CHANNELS 3 Zrotation Yrotation Xrotation
			JOINT LeftKnee
			{
				OFFSET 2.29640 -6.30932 0.00000
				CHANNELS 3 Zrotation Yrotation Xrotation
				JOINT LeftAnkle
				{
					OFFSET 2.29451 -6.30412 0.00000
					CHANNELS 3 Zrotation Yrotation Xrotation
					JOINT LeftToe
					{
						OFFSET 0.03611 -0.09921 1.56387
						CHANNELS 3 Zrotation Yrotation Xrotation
						End Site
						{
							OFFSET 0.00000 -0.00000 0.80291
						}
					}
				}
			}
		}
	}
	JOINT RHipJoint
	{
		OFFSET 0 0 0
		CHANNELS 3 Zrotation Yrotation Xrotation
		JOINT RightHip
		{
			OFFSET -1.73712 -1.40469 0.78906
			CHANNELS 3 Zrotation Yrotation Xrotation
			JOINT RightKnee
			{
				OFFSET -2.28137 -6.26801 0.00000
				CHANNELS 3 Zrotation Yrotation Xrotation
				JOINT RightAnkle
				{
					OFFSET -2.28681 -6.28298 0.00000
					CHANNELS 3 Zrotation Yrotation Xrotation
					JOINT RightToe
					{
						OFFSET -0.15927 -0.43759 1.61103
						CHANNELS 3 Zrotation Yrotation Xrotation
						End Site
						{
							OFFSET -0.00000 -0.00000 0.84630
						}
					}
				}
			}
		}
	}
	JOINT lowerback
	{
		OFFSET 0 0 0
		CHANNELS 3 Zrotation Yrotation Xrotation
		JOINT Chest
		{
			OFFSET -0.04227 2.04338 -0.00225
			CHANNELS 3 Zrotation Yrotation Xrotation
			JOINT Chest2
			{
				OFFSET -0.02148 2.04482 -0.04273
				CHANNELS 3 Zrotation Yrotation Xrotation
				JOINT lowerneck
				{
					OFFSET 0 0 0
					CHANNELS 3 Zrotation Yrotation Xrotation
					JOINT Neck
					{
						OFFSET 0.09180 1.44629 0.19359
						CHANNELS 3 Zrotation Yrotation Xrotation
						JOINT Head
						{
							OFFSET 0.00887 1.40645 0.14750
							CHANNELS 3 Zrotation Yrotation Xrotation
							End Site
							{
								OFFSET -0.00669 1.50671 0.03707
							}
						}
					}
				}
				JOINT LeftCollar
				{
					OFFSET 0 0 0
					CHANNELS 3 Zrotation Yrotation Xrotation
					JOINT LeftShoulder
					{
						OFFSET 2.17674 1.86763 -0.06520
CHANNELS 3 Zrotation Xrotation Yrotation
						JOINT LeftElbow
						{
OFFSET 0 -4.657760 0.000000
CHANNELS 3 Zrotation Xrotation Yrotation
							JOINT LeftWrist
							{
OFFSET 0 -3.555390 0.000000
CHANNELS 3 Zrotation Xrotation Yrotation
								JOINT lhand
								{
									OFFSET 0 0 0
CHANNELS 3 Zrotation Xrotation Yrotation
									JOINT LFingers
									{
OFFSET 0 -0.707260 0.000000
CHANNELS 3 Zrotation Xrotation Yrotation
										End Site
										{
OFFSET 0 -0.570220 0.000000
										}
									}
								}
								JOINT LThumb
								{
OFFSET 0 0.000000 0.000000
CHANNELS 3 Zrotation Xrotation Yrotation
									End Site
									{
OFFSET 0 -0.578920 0.578920
									}
								}
							}
						}
					}
				}
				JOINT RightCollar
				{
					OFFSET 0 0 0
					CHANNELS 3 Zrotation Yrotation Xrotation
					JOINT RightShoulder
					{
						OFFSET -2.80694 1.55459 -0.32496
CHANNELS 3 Zrotation Xrotation Yrotation
						JOINT RightElbow
						{
OFFSET 0 -4.719250 -0.000000
CHANNELS 3 Zrotation Xrotation Yrotation
							JOINT RightWrist
							{
OFFSET 0 -3.569900 0.000000
CHANNELS 3 Zrotation Xrotation Yrotation
								JOINT rhand
								{
									OFFSET 0 0 0
CHANNELS 3 Zrotation Xrotation Yrotation
									JOINT RFingers
									{
OFFSET 0 -0.507760 0.000000
CHANNELS 3 Zrotation Xrotation Yrotation
										End Site
										{
OFFSET 0 -0.409370 0.000000
										}
									}
								}
								JOINT RThumb
								{
OFFSET 0 0.000000 0.000000
CHANNELS 3 Zrotation Xrotation Yrotation
									End Site
									{
OFFSET 0 -0.415620 0.415620
									}
								}
							}
						}
					}
				}
			}
		}
	}
}
MOTION
Frames: 8
Frame Time: 0.008333333333333333
16.664800 19.666600 20.670300 177.285000 -3.612700 -154.137000 0.000000 0.000000 0.000000 -22.105900 -14.674300 -19.125900 0.160300 2.579900 7.111300 0.092200 -4.257600 -5.760800 3.002400 -10.698900 -31.271000 0.000000 0.000000 0.000000 18.694700 12.378100 -19.096700 -0.079400 -1.817200 5.000800 -1.105700 4.532700 -18.883100 -1.269600 7.141600 -20.135600 -8.407800 -3.162100 -30.506400 0.229600 -1.717500 -0.090200 4.044900 -1.621900 16.183800 -1.238700 -0.609300 -3.784900 5.831600 -2.523300 16.103000 1.849000 -1.273400 5.554200 0.000000 -0.000000 0.000000 4.409200 0.664300 -18.687800 11.669100 -19.306600 1.991500 21.804300 -0.562900 10.718700 0.000000 0.000000 0.000000 -7.125000 0.000000 0.000000 -3.713100 18.470400 -2.350400 0.000000 -0.000000 0.000000 1.060100 6.307800 1.853300 -16.932800 -26.769100 -4.057000 -11.549500 7.962300 48.215400 0.000000 0.000000 0.000000 7.125000 0.000000 -0.000000 51.055500 73.476400 -36.759400
16.666453 19.667122 20.672127 177.323270 -3.625051 -154.117865 0.000000 0.000000 0.000000 -22.027707 -14.751624 -19.137207 0.159430 2.573029 7.092078 0.092896 -4.221417 -5.768106 2.900201 -10.531467 -30.715905 0.000000 0.000000 0.000000 18.813251 11.863710 -19.124098 -0.067919 -1.680731 4.624097 -1.063689 4.978377 -18.470127 -1.240636 7.062711 -19.901280 -8.361702 -3.133919 -30.519969 0.238211 -1.698452 -0.100637 4.037420 -1.610332 16.174754 -1.246963 -0.602690 -3.601463 5.816292 -2.443628 15.648017 1.851522 -1.231216 5.378069 0.000000 0.000000 0.000000 4.389108 0.655689 -18.524368 11.487054 -19.030879 1.931833 21.854313 -0.348412 10.670688 0.000000 0.000000 0.000000 -7.125000 0.000000 0.000000 -3.676221 18.517542 -2.323176 0.000000 0.000000 0.000000 1.107764 6.230563 1.600541 -16.814683 -26.612713 -4.003943 -11.857316 8.515830 48.752839 0.000000 0.000000 0.000000 7.125000 0.000000 0.000000 52.382354 73.883197 -38.241249
16.668697 19.666830 20.673657 177.371155 -3.602790 -154.068407 0.000000 0.000000 0.000000 -21.934426 -14.860749 -19.152878 0.156785 2.551440 7.032327 0.095219 -4.082286 -5.785618 2.843336 -10.436955 -30.403682 0.000000 0.000000 0.000000 18.793282 12.334275 -19.220498 -0.078994 -1.811171 4.984076 -1.091050 4.671841 -18.740661 -1.222766 7.013626 -19.755783 -8.304953 -3.076895 -30.551731 0.228702 -1.644940 -0.126902 4.017885 -1.582493 16.149290 -1.137783 -0.549930 -3.641818 5.771253 -2.333855 15.427919 1.825719 -1.166622 5.311468 0.000000 0.000000 0.000000 4.388245 0.674516 -18.325806 11.310260 -18.762110 1.874606 21.895080 -0.027647 10.729543 0.000000 0.000000 0.000000 -7.125000 0.000000 0.000000 -3.649327 18.451235 -2.311409 0.000000 0.000000 0.000000 1.187008 6.268551 1.490962 -16.795965 -26.588043 -3.995556 -12.056564 8.725018 49.264763 0.000000 0.000000 0.000000 7.125000 0.000000 0.000000 53.790264 74.224913 -39.745507
16.671228 19.666517 20.675623 177.389047 -3.577726 -154.028845 0.000000 0.000000 0.000000 -21.908259 -14.859453 -19.213616 0.156631 2.550111 7.028631 0.096609 -4.005890 -5.799748 3.008945 -10.705841 -31.297836 0.000000 0.000000 0.000000 18.802546 12.362880 -19.321795 -0.082220 -1.849737 5.090605 -1.094857 4.738073 -18.767760 -1.204716 6.963513 -19.607278 -8.282160 -3.033682 -30.575667 0.217405 -1.595353 -0.139500 4.013289 -1.559041 16.137570 -1.009021 -0.509276 -3.752593 5.719639 -2.252297 15.291163 1.792553 -1.114658 5.283833 0.000000 0.000000 0.000000 4.369074 0.685012 -18.118927 11.169549 -18.547578 1.829570 21.824538 0.320299 10.676692 0.000000 0.000000 0.000000 -7.125000 0.000000 0.000000 -3.697555 18.513573 -2.336913 0.000000 0.000000 0.000000 1.244574 6.305926 1.416586 -16.791517 -26.582116 -3.993572 -12.136885 8.722824 49.439246 0.000000 0.000000 0.000000 7.125000 0.000000 0.000000 54.266920 74.345066 -40.260899
16.673789 19.667262 20.677942 177.375668 -3.590482 -154.025020 0.000000 0.000000 0.000000 -21.927724 -14.815087 -19.264301 0.158585 2.565878 7.072352 0.096473 -4.034007 -5.803615 3.206144 -11.020343 -32.349754 0.000000 0.000000 0.000000 18.821600 12.148214 -19.351191 -0.079244 -1.815773 4.996863 -1.086346 4.949415 -18.673590 -1.186426 6.912298 -19.455787 -8.265480 -3.014834 -30.557421 0.193674 -1.575048 -0.142958 3.987094 -1.547504 16.121078 -0.991168 -0.483353 -3.777156 5.761506 -2.211367 15.211352 1.804942 -1.088655 5.262120 0.000000 0.000000 0.000000 4.363487 0.712211 -17.937488 11.064516 -18.387087 1.796268 21.754024 0.565450 10.587701 0.000000 0.000000 0.000000 -7.125000 0.000000 0.000000 -3.744703 18.614468 -2.358546 0.000000 0.000000 0.000000 1.288821 6.325216 1.333641 -16.756511 -26.535622 -3.977930 -12.056488 8.577573 49.233874 0.000000 0.000000 0.000000 7.125000 0.000000 0.000000 53.692632 74.209355 -39.648216
16.676417 19.668723 20.679714 177.366676 -3.625914 -154.055841 0.000000 0.000000 0.000000 -21.922990 -14.832349 -19.246516 0.160235 2.579144 7.109163 0.096249 -4.066682 -5.806361 3.211126 -11.027096 -32.373674 0.000000 0.000000 0.000000 18.839998 12.050514 -19.336910 -0.078645 -1.809063 4.978343 -1.087620 5.015301 -18.679503 -1.167740 6.859511 -19.299880 -8.213317 -3.002847 -30.518744 0.154887 -1.573355 -0.134719 3.917942 -1.540434 16.110843 -1.082620 -0.450074 -3.700069 5.887210 -2.175939 15.167213 1.861687 -1.071728 5.235583 0.000000 0.000000 0.000000 4.377685 0.773384 -17.729175 10.988986 -18.271443 1.772482 21.753367 0.769755 10.550071 0.000000 0.000000 0.000000 -7.125000 0.000000 0.000000 -3.744085 18.654675 -2.354829 0.000000 0.000000 0.000000 1.333935 6.347164 1.278782 -16.710205 -26.474141 -3.957245 -11.855202 8.337826 48.797972 0.000000 0.000000 0.000000 7.125000 0.000000 0.000000 52.522891 73.905864 -38.380274
16.679375 19.669394 20.680256 177.382531 -3.619319 -154.095593 0.000000 0.000000 0.000000 -21.876294 -14.907150 -19.171925 0.159906 2.576363 7.101433 0.097600 -4.002473 -5.823729 3.049420 -10.774561 -31.523354 0.000000 0.000000 0.000000 18.861457 12.108886 -19.358011 -0.083365 -1.862421 5.125736 -1.098134 4.977207 -18.775644 -1.144892 6.794318 -19.107435 -8.135039 -2.972528 -30.508033 0.107822 -1.550920 -0.110620 3.833653 -1.522937 16.129201 -1.173169 -0.415315 -3.623293 6.007015 -2.138161 15.126865 1.916505 -1.053990 5.210085 0.000000 0.000000 0.000000 4.393865 0.848850 -17.448932 10.929935 -18.180790 1.754017 21.732366 1.074951 10.521466 0.000000 0.000000 0.000000 -7.125000 0.000000 0.000000 -3.758203 18.686873 -2.360908 0.000000 0.000000 0.000000 1.388046 6.388547 1.284080 -16.693830 -26.452352 -3.949946 -11.659285 8.120923 48.441151 0.000000 0.000000 0.000000 7.125000 0.000000 0.000000 51.616952 73.641756 -37.376688
16.682907 19.668176 20.680118 177.384284 -3.520196 -154.111646 0.000000 0.000000 0.000000 -21.876332 -14.893676 -19.134292 0.158350 2.563614 7.066109 0.100250 -3.893890 -5.860080 3.053037 -10.779455 -31.540590 0.000000 0.000000 0.000000 18.841881 12.186777 -19.420000 -0.088618 -1.919548 5.283381 -1.103139 5.017639 -18.816923 -1.116867 6.713602 -18.869541 -8.111732 -2.917370 -30.533110 0.057083 -1.474366 -0.087568 3.796563 -1.486979 16.156076 -1.176722 -0.435255 -3.630475 6.083457 -2.173333 15.089582 1.938807 -1.066745 5.201870 0.000000 0.000000 0.000000 4.410498 0.897058 -17.185026 10.860587 -18.074196 1.732465 21.518248 1.456278 10.371686 0.000000 0.000000 0.000000 -7.125000 0.000000 0.000000 -3.905611 18.864142 -2.438727 0.000000 0.000000 0.000000 1.461347 6.442529 1.275396 -16.708079 -26.471281 -3.956351 -11.579826 8.117534 48.491207 0.000000 0.000000 0.000000 7.125000 0.000000 0.000000 51.828905 73.639613 -37.547553
